<svg width="32" height="35" viewBox="0 0 32 35" fill="none" xmlns="http://www.w3.org/2000/svg">
<mask id="path-1-outside-1_997_66187" maskUnits="userSpaceOnUse" x="2.23975" y="-0.169922" width="29" height="36" fill="black">
<rect fill="white" x="2.23975" y="-0.169922" width="29" height="36"/>
<path fill-rule="evenodd" clip-rule="evenodd" d="M6.99541 1.83008C5.4735 1.83008 4.23975 3.06383 4.23975 4.58574V30.386C4.23975 31.908 5.4735 33.1417 6.99541 33.1417H25.9318C27.4537 33.1417 28.6875 31.908 28.6875 30.386V12.8191C28.6875 12.0679 28.3808 11.3493 27.8384 10.8295L19.2471 2.59618C18.7341 2.10455 18.051 1.83008 17.3405 1.83008H6.99541ZM6.07686 4.58574C6.07686 4.07844 6.48811 3.66719 6.99541 3.66719H16.7968L16.7968 12.1175C16.7968 12.5635 17.1584 12.925 17.6044 12.925L26.8284 12.925C26.8358 12.925 26.8431 12.9249 26.8503 12.9248V30.386C26.8503 30.8933 26.4391 31.3046 25.9318 31.3046H6.99541C6.48811 31.3046 6.07686 30.8933 6.07686 30.386V4.58574Z"/>
</mask>
<path fill-rule="evenodd" clip-rule="evenodd" d="M6.99541 1.83008C5.4735 1.83008 4.23975 3.06383 4.23975 4.58574V30.386C4.23975 31.908 5.4735 33.1417 6.99541 33.1417H25.9318C27.4537 33.1417 28.6875 31.908 28.6875 30.386V12.8191C28.6875 12.0679 28.3808 11.3493 27.8384 10.8295L19.2471 2.59618C18.7341 2.10455 18.051 1.83008 17.3405 1.83008H6.99541ZM6.07686 4.58574C6.07686 4.07844 6.48811 3.66719 6.99541 3.66719H16.7968L16.7968 12.1175C16.7968 12.5635 17.1584 12.925 17.6044 12.925L26.8284 12.925C26.8358 12.925 26.8431 12.9249 26.8503 12.9248V30.386C26.8503 30.8933 26.4391 31.3046 25.9318 31.3046H6.99541C6.48811 31.3046 6.07686 30.8933 6.07686 30.386V4.58574Z" fill="black"/>
<path d="M27.8384 10.8295L29.0606 9.55421V9.55421L27.8384 10.8295ZM19.2471 2.59618L18.025 3.87149L19.2471 2.59618ZM16.7968 3.66719L18.5632 3.66719V1.90081H16.7968V3.66719ZM16.7968 12.1175H18.5632H18.5632H16.7968ZM17.6044 12.925V14.6914V14.6914V12.925ZM26.8284 12.925V11.1587V11.1587V12.925ZM26.8503 12.9248H28.6167V11.1145L26.807 11.1589L26.8503 12.9248ZM6.00613 4.58574C6.00613 4.03937 6.44904 3.59646 6.99541 3.59646V0.0636983C4.49795 0.0636983 2.47337 2.08829 2.47337 4.58574H6.00613ZM6.00613 30.386V4.58574H2.47337V30.386H6.00613ZM6.99541 31.3753C6.44904 31.3753 6.00613 30.9324 6.00613 30.386H2.47337C2.47337 32.8835 4.49796 34.9081 6.99541 34.9081V31.3753ZM25.9318 31.3753H6.99541V34.9081H25.9318V31.3753ZM26.9211 30.386C26.9211 30.9324 26.4782 31.3753 25.9318 31.3753V34.9081C28.4292 34.9081 30.4538 32.8835 30.4538 30.386H26.9211ZM26.9211 12.8191V30.386H30.4538V12.8191H26.9211ZM26.6163 12.1048C26.811 12.2914 26.9211 12.5494 26.9211 12.8191H30.4538C30.4538 11.5864 29.9506 10.4071 29.0606 9.55421L26.6163 12.1048ZM18.025 3.87149L26.6163 12.1048L29.0606 9.55421L20.4693 1.32088L18.025 3.87149ZM17.3405 3.59646C17.5956 3.59646 17.8408 3.69499 18.025 3.87149L20.4693 1.32088C19.6274 0.514101 18.5065 0.0636983 17.3405 0.0636983V3.59646ZM6.99541 3.59646H17.3405V0.0636983H6.99541V3.59646ZM6.99541 1.90081C5.51256 1.90081 4.31048 3.1029 4.31048 4.58574H7.84324C7.84324 5.05398 7.46365 5.43357 6.99541 5.43357V1.90081ZM16.7968 1.90081H6.99541V5.43357H16.7968V1.90081ZM18.5632 12.1175L18.5632 3.66719L15.0305 3.66719L15.0305 12.1175H18.5632ZM17.6044 11.1587C18.1339 11.1587 18.5632 11.5879 18.5632 12.1175H15.0305C15.0305 13.539 16.1828 14.6914 17.6044 14.6914V11.1587ZM26.8284 11.1587L17.6044 11.1587V14.6914L26.8284 14.6914V11.1587ZM26.807 11.1589C26.8142 11.1587 26.8214 11.1587 26.8284 11.1587V14.6914C26.8502 14.6914 26.8719 14.6911 26.8937 14.6906L26.807 11.1589ZM28.6167 30.386V12.9248H25.084V30.386H28.6167ZM25.9318 33.071C27.4146 33.071 28.6167 31.8689 28.6167 30.386H25.084C25.084 29.9178 25.4635 29.5382 25.9318 29.5382V33.071ZM6.99541 33.071H25.9318V29.5382H6.99541V33.071ZM4.31048 30.386C4.31048 31.8689 5.51256 33.071 6.99541 33.071V29.5382C7.46365 29.5382 7.84324 29.9178 7.84324 30.386H4.31048ZM4.31048 4.58574V30.386H7.84324V4.58574H4.31048Z" fill="white" mask="url(#path-1-outside-1_997_66187)"/>
<rect x="5.59473" y="12.3691" width="21.7352" height="14.6907" fill="white"/>
<rect x="5.59473" y="3.07031" width="11.7974" height="22.8389" fill="white"/>
<rect x="4.26318" y="25.9102" width="24.3222" height="6.3141" rx="3.15705" fill="#FFC900"/>
<path d="M6.99482 2.74805H17.3399C17.8136 2.74805 18.269 2.93103 18.611 3.25878L27.2023 11.4921C27.5639 11.8386 27.7683 12.3177 27.7683 12.8185V30.3855C27.7683 31.4001 26.9458 32.2226 25.9312 32.2226H6.99483C5.98022 32.2226 5.15771 31.4001 5.15771 30.3855V4.58516C5.15771 3.57055 5.98022 2.74805 6.99482 2.74805Z" stroke="black" stroke-width="1.83711"/>
<path d="M21.9489 7.82803L21.9543 7.8331L21.9597 7.83809L26.542 12.0077L17.7143 12.0077L17.7143 3.84791L21.9489 7.82803Z" fill="black" stroke="black" stroke-width="1.83619"/>
</svg>
